<?xml version="1.0" encoding="utf-8"?>
<!-- Generator: Adobe Illustrator 23.0.1, SVG Export Plug-In . SVG Version: 6.00 Build 0)  -->
<svg version="1.1" id="Layer_1" xmlns="http://www.w3.org/2000/svg" xmlns:xlink="http://www.w3.org/1999/xlink" x="0px" y="0px"
	 viewBox="0 0 99.9 57.9" style="enable-background:new 0 0 99.9 57.9;" xml:space="preserve">
<style type="text/css">
	.st0{fill:#FFF;}
</style>
<title>Asset 12</title>
<g>
	<g id="Layer_1-2">
		<g id="Layer_19">
			<path class="st0" d="M17.5,56.1C10,56.1,3.9,50,3.9,42.5S10,28.9,17.5,28.9C16,15.5,25.7,3.4,39.2,2c11.1-1.2,21.6,5.2,25.5,15.6
				c8.8-2.2,17.7,3.2,19.9,12c0.5,2,0.6,4.1,0.3,6.2c5.4-1.7,11.3,1.3,13,6.7c1.7,5.4-1.3,11.3-6.7,13c-0.3,0.1-0.7,0.2-1,0.3
				c-0.9,0.2-1.8,0.3-2.6,0.3L17.5,56.1z"/>
		</g>
	</g>
</g>
</svg>
